#Comment line ignore any data following # character 
#Hierarchical Translation and Rotation (.htr) file 
[Header]	
#Header keywords are followed by a single value 
FileType HTR		#Single word string
DataType HTRS		#Translation followed by rotation and scale data
FileVersion 1		#integer
NumSegments 25		#integer
NumFrames 4		#integer
DataFrameRate 30		#integer, data frame rate in this file
EulerRotationOrder ZYX
CalibrationUnits mm
RotationUnits Degrees
GlobalAxisofGravity Y
BoneLengthAxis Y
ScaleFactor 1.00
[SegmentNames&Hierarchy]
#CHILD	PARENT
BN_Tick_Root GLOBAL
BN_Torso BN_Tick_Root
BN_L_Leg_Front01 BN_Torso
BN_L_Leg_Rear01 BN_Torso
BN_MetalTop BN_Torso
BN_Neck BN_Torso
BN_R_Leg_Front01 BN_Torso
BN_R_Leg_Rear01 BN_Torso
BN_Sack BN_Torso
BN_L_Leg_Front02 BN_L_Leg_Front01
BN_L_Leg_Front03 BN_L_Leg_Front02
BN_L_Leg_Rear02 BN_L_Leg_Rear01
BN_L_Leg_Rear03 BN_L_Leg_Rear02
BN_Head BN_Neck
BN_Needle BN_Head
BN_R_Leg_Front02 BN_R_Leg_Front01
BN_R_Leg_Front03 BN_R_Leg_Front02
BN_R_Leg_Rear02 BN_R_Leg_Rear01
BN_R_Leg_Rear03 BN_R_Leg_Rear02
BN_SackDef01 BN_Sack
BN_SackDef02 BN_Sack
BN_SackDef03 BN_Sack
BN_SackDef04 BN_Sack
BN_SackDef05 BN_Sack
BN_SackDef06 BN_Sack
[BasePosition]
#SegmentName Tx, Ty, Tz, Rx, Ry, Rz, BoneLength
BN_Tick_Root 0.000000 0.000000 0.000000 -90.000000 0.000000 0.000000 10.000000 
BN_Torso 0.000000 0.000000 0.000000 0.000000 0.000000 0.000000 10.000000 
BN_L_Leg_Front01 0.000000 0.000000 0.000000 0.000000 0.000000 0.000000 10.000000 
BN_L_Leg_Rear01 0.000000 0.000000 0.000000 0.000000 0.000000 0.000000 10.000000 
BN_MetalTop 0.000000 0.000000 0.000000 0.000000 0.000000 0.000000 10.000000 
BN_Neck 0.000000 0.000000 0.000000 0.000000 0.000000 0.000000 10.000000 
BN_R_Leg_Front01 0.000000 0.000000 0.000000 0.000000 0.000000 0.000000 10.000000 
BN_R_Leg_Rear01 0.000000 0.000000 0.000000 0.000000 0.000000 0.000000 10.000000 
BN_Sack 0.000000 0.000000 0.000000 0.000000 0.000000 0.000000 10.000000 
BN_L_Leg_Front02 0.000000 0.000000 0.000000 0.000000 0.000000 0.000000 10.000000 
BN_L_Leg_Front03 0.000000 0.000000 0.000000 0.000000 0.000000 0.000000 10.000000 
BN_L_Leg_Rear02 0.000000 0.000000 0.000000 0.000000 0.000000 0.000000 10.000000 
BN_L_Leg_Rear03 0.000000 0.000000 0.000000 0.000000 0.000000 0.000000 10.000000 
BN_Head 0.000000 0.000000 0.000000 0.000000 0.000000 0.000000 10.000000 
BN_Needle 0.000000 0.000000 0.000000 0.000000 0.000000 0.000000 10.000000 
BN_R_Leg_Front02 0.000000 0.000000 0.000000 0.000000 0.000000 0.000000 10.000000 
BN_R_Leg_Front03 0.000000 0.000000 0.000000 0.000000 0.000000 0.000000 10.000000 
BN_R_Leg_Rear02 0.000000 0.000000 0.000000 0.000000 0.000000 0.000000 10.000000 
BN_R_Leg_Rear03 0.000000 0.000000 0.000000 0.000000 0.000000 0.000000 10.000000 
BN_SackDef01 0.000000 0.000000 0.000000 0.000000 0.000000 0.000000 10.000000 
BN_SackDef02 0.000000 0.000000 0.000000 0.000000 0.000000 0.000000 10.000000 
BN_SackDef03 0.000000 0.000000 0.000000 0.000000 0.000000 0.000000 10.000000 
BN_SackDef04 0.000000 0.000000 0.000000 0.000000 0.000000 0.000000 10.000000 
BN_SackDef05 0.000000 0.000000 0.000000 0.000000 0.000000 0.000000 10.000000 
BN_SackDef06 0.000000 0.000000 0.000000 0.000000 0.000000 0.000000 10.000000 
#Beginning of Data. Separated by tabs
#Fr	Tx	Ty	Tz	Rx	Ry	Rz	SF
[BN_Tick_Root]
20 0.000000 0.000000 0.000000 0.000000 0.000000 -0.000020 0.000000
21 0.000000 0.000000 0.000000 0.000000 0.000000 -0.000020 0.000000
22 0.000000 0.000000 0.000000 0.000000 0.000000 -0.000020 0.000000
23 0.000000 0.000000 0.000000 0.000000 0.000000 -0.000020 0.000000
[BN_Torso]
20 3.095382 20.697634 203.506607 -11.501204 -1.288025 0.767679 204.579849
21 3.095382 20.697634 205.654922 -12.189189 -1.495852 0.813062 206.717010
22 3.095382 20.697634 207.803238 -12.877468 -1.703135 0.860947 208.854385
23 3.095382 20.697634 209.951553 -13.565995 -1.909828 0.911325 210.992004
[BN_L_Leg_Front01]
20 -68.477791 10.734189 -26.804373 -60.369106 52.266762 137.428055 74.316254
21 -68.477791 10.734189 -26.804373 -60.902611 51.866436 136.910141 74.316254
22 -68.477791 10.734189 -26.804373 -61.425560 51.463139 136.402771 74.316254
23 -68.477791 10.734189 -26.804373 -61.938225 51.057022 135.905746 74.316254
[BN_L_Leg_Rear01]
20 -72.133743 -73.994843 -18.268616 44.673828 60.246635 -148.437744 104.939293
21 -72.133743 -73.994843 -18.268616 42.912521 60.763775 -150.053085 104.939293
22 -72.133743 -73.994843 -18.268616 41.093117 61.255882 -151.726852 104.939293
23 -72.133743 -73.994843 -18.268616 39.215954 61.721584 -153.458664 104.939293
[BN_MetalTop]
20 0.000008 13.737477 26.403606 91.842506 -21.322815 -97.505966 29.763546
21 0.000008 13.737477 26.403606 91.700745 -22.627995 -97.543816 29.763546
22 0.000008 13.737477 26.403606 91.976799 -20.106705 -97.486816 29.763546
23 0.000008 13.737477 26.403606 92.251366 -17.585705 -97.417946 29.763546
[BN_Neck]
20 0.000014 95.233284 10.002091 -89.999672 -65.297531 89.999657 95.757088
21 0.000014 95.233284 10.002091 -89.999672 -65.297531 89.999657 95.757088
22 0.000014 95.233284 10.002091 -89.999672 -65.297531 89.999657 95.757088
23 0.000014 95.233284 10.002091 -89.999672 -65.297531 89.999657 95.757088
[BN_R_Leg_Front01]
20 68.477768 10.734107 -26.804314 63.344883 46.368034 47.028069 74.316193
21 68.477768 10.734107 -26.804314 64.202309 46.333298 47.769581 74.316193
22 68.477768 10.734107 -26.804314 65.058449 46.290897 48.509754 74.316193
23 68.477768 10.734107 -26.804314 65.913010 46.240871 49.248318 74.316193
[BN_R_Leg_Rear01]
20 72.133751 -73.994873 -18.268644 16.772005 77.828598 40.156368 104.939331
21 72.133751 -73.994873 -18.268644 21.346081 77.534599 44.630253 104.939331
22 72.133751 -73.994873 -18.268644 25.688196 77.167267 48.872105 104.939331
23 72.133751 -73.994873 -18.268644 29.771498 76.732666 52.855049 104.939331
[BN_Sack]
20 -0.000000 -78.024918 33.657791 91.379875 -11.014523 -97.199577 84.974907
21 -0.000000 -78.024918 33.657791 91.379875 -11.014523 -97.199570 84.974907
22 -0.000000 -78.024918 33.657791 91.379875 -11.014523 -97.199577 84.974907
23 -0.000000 -78.024918 33.657791 91.379875 -11.014524 -97.199577 84.974907
[BN_L_Leg_Front02]
20 142.805023 -0.000015 -0.000104 -0.096551 0.847009 -145.329849 142.805023
21 142.805023 -0.000015 -0.000104 -0.085666 0.834437 -144.136612 142.805023
22 142.805023 -0.000015 -0.000104 -0.075042 0.821638 -142.943146 142.805023
23 142.805023 -0.000015 -0.000104 -0.064688 0.808621 -141.749695 142.805023
[BN_L_Leg_Front03]
20 124.143021 -0.000045 0.000007 0.355091 -0.253960 145.491348 124.143021
21 124.143021 -0.000045 0.000007 0.355004 -0.258799 144.785553 124.143021
22 124.143021 -0.000045 0.000007 0.354976 -0.263638 144.079742 124.143021
23 124.143021 -0.000045 0.000007 0.355009 -0.268477 143.373917 124.143021
[BN_L_Leg_Rear02]
20 139.939041 0.000075 -0.000022 0.060771 -0.245563 102.082474 139.939041
21 139.939041 0.000075 -0.000022 0.063858 -0.247110 101.374115 139.939041
22 139.939041 0.000075 -0.000022 0.066964 -0.248619 100.665710 139.939041
23 139.939041 0.000075 -0.000022 0.070088 -0.250089 99.957291 139.939041
[BN_L_Leg_Rear03]
20 142.839615 0.000179 -0.000060 0.000635 -0.002260 -121.390511 142.839615
21 142.839615 0.000179 -0.000060 0.000620 -0.002264 -120.642014 142.839615
22 142.839615 0.000179 -0.000060 0.000605 -0.002268 -119.893440 142.839615
23 142.839615 0.000179 -0.000060 0.000591 -0.002272 -119.144867 142.839615
[BN_Head]
20 57.062447 -0.000030 0.000000 11.198562 -5.918597 4.463190 57.062447
21 57.062447 -0.000030 0.000000 11.300306 -5.731166 3.765833 57.062447
22 57.062447 -0.000030 0.000000 11.399729 -5.542502 3.068983 57.062447
23 57.062447 -0.000030 0.000000 11.496808 -5.352649 2.372682 57.062447
[BN_Needle]
20 33.915161 69.677544 -0.000060 0.000003 0.000030 87.896805 77.493217
21 33.915161 69.677544 -0.000060 0.000003 0.000030 87.896805 77.493217
22 33.915161 69.677544 -0.000060 0.000003 0.000030 87.896805 77.493217
23 33.915161 69.677544 -0.000060 0.000003 0.000030 87.896805 77.493217
[BN_R_Leg_Front02]
20 142.804947 -0.000060 0.000060 -0.087632 0.576557 119.590889 142.804947
21 142.804947 -0.000060 0.000060 -0.091898 0.568738 118.752457 142.804947
22 142.804947 -0.000060 0.000060 -0.096050 0.560856 117.913940 142.804947
23 142.804947 -0.000060 0.000060 -0.100086 0.552914 117.075424 142.804947
[BN_R_Leg_Front03]
20 124.143005 -0.000060 -0.000156 -0.355585 -0.355896 -127.510277 124.143005
21 124.143005 -0.000060 -0.000156 -0.355083 -0.359198 -126.787506 124.143005
22 124.143005 -0.000060 -0.000156 -0.354624 -0.362507 -126.064682 124.143005
23 124.143005 -0.000060 -0.000156 -0.354206 -0.365821 -125.341843 124.143005
[BN_R_Leg_Rear02]
20 139.939011 -0.000149 0.000015 0.099144 -0.251569 -147.881012 139.939011
21 139.939011 -0.000149 0.000015 0.088938 -0.252258 -145.383911 139.939011
22 139.939011 -0.000149 0.000015 0.078713 -0.252502 -142.886810 139.939011
23 139.939011 -0.000149 0.000015 0.071319 -0.253247 -140.588303 139.939011
[BN_R_Leg_Rear03]
20 142.839417 0.000075 0.000119 0.001988 -0.001248 154.222183 142.839417
21 142.839417 0.000075 0.000119 0.002001 -0.001227 153.017532 142.839417
22 142.839417 0.000075 0.000119 0.002014 -0.001206 151.812637 142.839417
23 142.839417 0.000075 0.000119 0.002027 -0.001185 150.607742 142.839417
[BN_SackDef01]
20 249.782272 -3.760844 42.949425 -128.408218 -44.374973 -11.740845 253.475800
21 249.782272 -3.760844 42.949425 -128.408218 -44.374973 -11.740845 253.475800
22 249.782272 -3.760844 42.949425 -128.408218 -44.374973 -11.740845 253.475800
23 249.782272 -3.760844 42.949425 -128.408218 -44.374973 -11.740845 253.475800
[BN_SackDef02]
20 138.789795 -62.131748 45.674385 32.077126 -27.375721 -88.781525 158.773758
21 138.789795 -62.131748 45.674385 32.077126 -27.375721 -88.781525 158.773758
22 138.789795 -62.131748 45.674385 32.077126 -27.375721 -88.781525 158.773758
23 138.789795 -62.131748 45.674385 32.077126 -27.375721 -88.781525 158.773758
[BN_SackDef03]
20 249.782272 -3.760785 -42.949661 18.144459 44.375008 -11.740894 253.475845
21 249.782272 -3.760785 -42.949661 18.144459 44.375008 -11.740894 253.475845
22 249.782272 -3.760785 -42.949661 18.144459 44.375008 -11.740894 253.475845
23 249.782272 -3.760785 -42.949661 18.144459 44.375008 -11.740894 253.475845
[BN_SackDef04]
20 138.789780 -62.131645 -45.674473 146.059982 27.375723 -88.781555 158.773743
21 138.789780 -62.131645 -45.674473 146.059982 27.375723 -88.781555 158.773743
22 138.789780 -62.131645 -45.674473 146.059982 27.375723 -88.781555 158.773743
23 138.789780 -62.131645 -45.674473 146.059982 27.375723 -88.781555 158.773743
[BN_SackDef05]
20 118.790161 46.167137 -63.831196 0.155741 51.314110 90.605110 142.537460
21 118.790161 46.167137 -63.831196 0.155741 51.314110 90.605110 142.537460
22 118.790161 46.167137 -63.831196 0.155741 51.314110 90.605110 142.537460
23 118.790161 46.167137 -63.831196 0.155741 51.314110 90.605110 142.537460
[BN_SackDef06]
20 118.790207 46.167194 63.831219 152.058487 -51.314072 90.605019 142.537537
21 118.790207 46.167194 63.831219 152.058487 -51.314072 90.605019 142.537537
22 118.790207 46.167194 63.831219 152.058487 -51.314072 90.605019 142.537537
23 118.790207 46.167194 63.831219 152.058487 -51.314072 90.605019 142.537537
